<?xml version="1.0" encoding="UTF-8"?>
<svg id="Layer_2" data-name="Layer 2" xmlns="http://www.w3.org/2000/svg" viewBox="0 0 811 222">
  <defs>
    <style>
      .cls-1 {
        fill: none;
      }

      .cls-2 {
        fill: #e0e9cc;
      }
    </style>
  </defs>
  <g id="Layer_1-2" data-name="Layer 1">
    <g>
      <rect class="cls-1" width="811" height="222"/>
      <g>
        <path class="cls-2" d="M369.45,77.17h-6.41c-3.05-5.19-7.22-9.13-12.51-11.83-5.29-2.69-11.6-4.04-18.92-4.04-13.43,0-24.01,4.2-31.74,12.59-7.73,8.39-11.6,19.76-11.6,34.1,0,9.56,1.73,17.83,5.19,24.8,3.46,6.97,8.39,12.36,14.8,16.17s13.94,5.72,22.58,5.72c7.22,0,13.48-1.45,18.77-4.35,5.29-2.9,9.16-7.04,11.6-12.44h.76v14.8c0,8.34-2.54,14.77-7.63,19.3-5.09,4.52-12.41,6.79-21.97,6.79-15.05,0-23.96-5.19-26.7-15.56h-18c1.42,9.36,6.1,16.68,14.04,21.97,7.93,5.29,18.26,7.93,30.98,7.93,14.65,0,26.01-3.49,34.1-10.45,8.09-6.97,12.13-16.71,12.13-29.22v-72.63h8.85v-17.7h-18.31v14.04ZM361.82,114.09c0,7.73-2.47,13.94-7.4,18.62-4.93,4.68-11.42,7.02-19.45,7.02-9.26,0-16.5-2.77-21.74-8.32-5.24-5.54-7.86-13.35-7.86-23.42s2.62-17.88,7.86-23.42c5.24-5.54,12.49-8.32,21.74-8.32,8.03,0,14.52,2.34,19.45,7.02,4.93,4.68,7.4,10.89,7.4,18.62v12.21Z"/>
        <path class="cls-2" d="M474.12,96.24c0-11.29-3.38-19.94-10.15-25.94-6.77-6-16.5-9-29.22-9-11.19,0-20.37,2.49-27.54,7.48-7.17,4.99-11.52,12-13.05,21.06h17.24c2.64-9.56,10.32-14.34,23.04-14.34,15.56,0,23.35,7.07,23.35,21.21v4.12h-31.28c-11.09,0-19.58,2.42-25.48,7.25-5.9,4.83-8.85,11.62-8.85,20.37s2.98,15.08,8.93,20.22c5.95,5.14,14.11,7.71,24.49,7.71,7.22,0,13.58-1.4,19.07-4.2,5.49-2.8,9.81-6.64,12.97-11.52h6.41v14.04h18.31v-17.7h-8.24v-40.74ZM457.79,117.45c0,4.58-1.32,8.8-3.97,12.66-2.65,3.87-6.26,6.92-10.83,9.16-4.58,2.24-9.61,3.36-15.11,3.36-6.1,0-10.88-1.35-14.34-4.04-3.46-2.69-5.19-6.33-5.19-10.91,0-9.56,6.41-14.34,19.23-14.34h30.21v4.12Z"/>
        <rect class="cls-2" x="494.26" y="63.13" width="17.09" height="91.55"/>
        <path class="cls-2" d="M502.8,29.87c-2.85,0-5.29,1.02-7.32,3.05-2.04,2.04-3.05,4.48-3.05,7.32s1.01,5.29,3.05,7.32c2.03,2.04,4.48,3.05,7.32,3.05s5.29-1.02,7.33-3.05c2.03-2.03,3.05-4.48,3.05-7.32s-1.02-5.29-3.05-7.32c-2.04-2.03-4.48-3.05-7.33-3.05Z"/>
        <path class="cls-2" d="M641.81,76.25h23.8v-13.12h-23.96v-27.47h-16.78v27.47h-28.53l-29.91,71.56h-.76l-31.43-71.56h-17.7l41.05,91.86-9.46,22.74h-22.12v13.58h22.43c4.98,0,8.47-1.35,10.45-4.04,1.98-2.7,3.99-6.38,6.03-11.06l9.16-21.51,33.57-78.67v.24h17.09v63.48c0,4.99,1.35,8.72,4.04,11.21,2.69,2.49,6.49,3.74,11.37,3.74h27.92v-13.43h-26.24v-65Z"/>
        <path class="cls-2" d="M708.26,67.1c-5.34,3.15-9.28,7.53-11.83,13.12h-6.41v-17.09h-18.31v17.7h8.85v73.85h16.94v-47.76c0-9.16,2.49-16.43,7.48-21.82,4.98-5.39,12.05-8.09,21.21-8.09h8.39v-14.65h-7.48c-7.22,0-13.5,1.58-18.84,4.73Z"/>
        <rect class="cls-2" x="742.36" y="63.13" width="17.09" height="91.55"/>
        <path class="cls-2" d="M750.9,50.62c2.85,0,5.29-1.02,7.33-3.05,2.03-2.03,3.05-4.48,3.05-7.32s-1.02-5.29-3.05-7.32c-2.04-2.03-4.48-3.05-7.33-3.05s-5.29,1.02-7.32,3.05c-2.04,2.04-3.05,4.48-3.05,7.32s1.01,5.29,3.05,7.32c2.03,2.04,4.48,3.05,7.32,3.05Z"/>
        <g>
          <path class="cls-2" d="M242.67,107.66c-2.25-4.37-7.85-8.25-16.08-10.98-6.12-2.02-22.41-6.04-41.37.48-7.06,2.44-13.69,6.12-19.77,10.98.35-4.69.13-9.39-.65-14.04-1.46-8.71-4.9-17.02-9.98-24.16,1.37-1.27,2.81-2.44,4.29-3.52.12-.1.23-.19.35-.27,10.16-7.23,22.52-10.02,34.79-7.85.44.08,1.31.23,2.25,1.96.5.94.9,2.08,1.15,3.39.67,3.15.62,7.17-.1,11.18-.44,2.6-1.19,5.19-2.19,7.54l-.75,1.77c4.81-.9,9.33-1.17,13.41-1.1,1.85-6.02,2.73-13.18,1.89-19.56-.44-3.27-1.33-6.37-2.75-8.98-2.42-4.5-6.15-7.31-10.79-8.14-15.5-2.73-31.1.79-43.93,9.93-1.96,1.38-3.87,2.92-5.65,4.58-1.81-1.65-3.71-3.19-5.65-4.58-12.83-9.14-28.43-12.66-43.95-9.93-4.64.83-8.37,3.64-10.79,8.14-1.42,2.62-2.31,5.69-2.73,8.96-.85,6.4.02,13.56,1.88,19.58,0,0,1.35,4.98,4.35,10.6-10.6-.46-18.95,1.71-22.95,3.04-8.23,2.73-13.83,6.62-16.08,10.98-1,1.92-1.35,3.92-1,5.96,2.62,15.29,11.02,28.66,23.66,37.64,9.91,7.06,21.56,10.79,33.72,10.79,14.79,0,28.75-5.44,39.55-15.39,10.77,9.94,24.73,15.39,39.53,15.39,12.16,0,23.81-3.73,33.72-10.79,12.64-8.98,21.04-22.35,23.66-37.64.35-2.04,0-4.04-1-5.96ZM80.53,141.4c-9.67-6.91-16.23-17.06-18.52-28.7.46-.48,1.35-1.13,2.62-1.87,3.5-1.98,9.94-4.44,18.58-5,12.02-.77,33.45,1.79,50.18,25.49,1.54,2.17,3.04,4.54,4.48,7.08-15.98,14.1-39.85,15.43-57.34,3ZM128.73,94.1c-.77,4.65-1,9.37-.65,14.04-2.73-2.19-5.58-4.14-8.52-5.81-.12-.1-.25-.17-.39-.23-.79-.42-1.56-.85-2.35-1.27-.15-.08-.29-.15-.42-.23-3.17-1.75-6.33-3.64-9.02-6.02-6.21-5.5-10.69-13.71-11.71-22.02-.08-.54-.12-1.08-.15-1.62v-.04c-.21-2.65-.1-5.17.37-7.29.27-1.29.65-2.42,1.15-3.35.94-1.73,1.83-1.88,2.25-1.96,12.27-2.15,24.64.63,34.79,7.85.12.1.25.17.37.27,1.46,1.08,2.9,2.25,4.27,3.52-5.06,7.14-8.5,15.45-9.98,24.16ZM146.77,127.72c-5.37-8.77-7.6-18.95-6.42-29.18.1-.81.21-1.63.35-2.44,1-5.87,3.02-11.37,6.08-16.35,3.04,5,5.08,10.48,6.06,16.35.13.83.27,1.67.35,2.5,1.17,10.21-1.08,20.37-6.41,29.12ZM213,141.4c-17.48,12.43-41.35,11.1-57.34-3,1.44-2.56,2.94-4.9,4.5-7.08,16.73-23.7,38.16-26.27,50.16-25.49,8.64.56,15.08,3.02,18.58,5,1.27.73,2.15,1.38,2.62,1.87-2.29,11.64-8.85,21.79-18.52,28.7Z"/>
          <rect class="cls-2" x="139.52" y="163.81" width="14.6" height="14.6" transform="translate(-77.99 153.94) rotate(-45)"/>
          <path class="cls-2" d="M119.58,102.31l-.02.02c-.12-.1-.25-.17-.39-.23.13.06.27.13.4.21Z"/>
        </g>
      </g>
    </g>
  </g>
</svg>