<?xml version="1.0" encoding="UTF-8"?>
<svg id="Layer_2" data-name="Layer 2" xmlns="http://www.w3.org/2000/svg" viewBox="0 0 394 365">
  <defs>
    <style>
      .cls-1 {
        fill: none;
      }

      .cls-2 {
        fill: #e0e9cc;
      }
    </style>
  </defs>
  <g id="Layer_1-2" data-name="Layer 1">
    <g>
      <rect class="cls-1" width="394" height="365"/>
      <g>
        <path class="cls-2" d="M365.64,182.33c-3.96-7.68-13.8-14.51-28.27-19.31-10.75-3.55-39.4-10.62-72.75.85-12.41,4.29-24.08,10.75-34.77,19.31.61-8.25.24-16.5-1.15-24.69-2.57-15.32-8.62-29.93-17.55-42.48,2.4-2.23,4.94-4.3,7.54-6.19.2-.17.41-.34.61-.47,17.86-12.72,39.6-17.62,61.18-13.8.78.14,2.3.41,3.96,3.45.88,1.66,1.59,3.65,2.03,5.95,1.18,5.55,1.08,12.61-.17,19.65-.78,4.57-2.1,9.13-3.86,13.26l-1.32,3.11c8.46-1.59,16.4-2.06,23.57-1.93,3.25-10.59,4.8-23.17,3.32-34.4-.78-5.75-2.33-11.19-4.84-15.79-4.26-7.91-10.82-12.85-18.97-14.31-27.26-4.8-54.69,1.39-77.25,17.45-3.45,2.43-6.8,5.14-9.94,8.05-3.18-2.91-6.53-5.61-9.94-8.05-22.56-16.06-49.99-22.25-77.28-17.45-8.15,1.45-14.71,6.39-18.97,14.31-2.5,4.6-4.06,10.01-4.8,15.76-1.49,11.26.03,23.84,3.31,34.43,0,0,2.37,8.76,7.64,18.64-18.64-.81-33.31,3.01-40.35,5.34-14.48,4.8-24.32,11.63-28.27,19.31-1.76,3.38-2.37,6.9-1.76,10.48,4.6,26.89,19.38,50.39,41.6,66.19,17.42,12.41,37.91,18.97,59.29,18.97,26.01,0,50.56-9.57,69.53-27.06,18.94,17.49,43.49,27.06,69.5,27.06,21.37,0,41.87-6.56,59.29-18.97,22.22-15.79,37-39.3,41.6-66.19.61-3.58,0-7.1-1.76-10.48ZM80.54,241.65c-17.01-12.14-28.54-30-32.57-50.46.81-.85,2.37-2,4.6-3.28,6.15-3.48,17.48-7.81,32.67-8.79,21.14-1.35,58.81,3.15,88.24,44.81,2.7,3.82,5.34,7.98,7.88,12.45-28.1,24.79-70.08,27.12-100.82,5.28ZM165.29,158.48c-1.35,8.18-1.76,16.47-1.15,24.69-4.8-3.86-9.81-7.27-14.98-10.21-.2-.17-.44-.3-.68-.41-1.39-.74-2.74-1.49-4.13-2.23-.27-.14-.51-.27-.74-.41-5.58-3.08-11.13-6.39-15.86-10.59-10.92-9.67-18.8-24.11-20.6-38.72-.14-.95-.2-1.89-.27-2.84v-.07c-.37-4.67-.17-9.1.64-12.82.47-2.27,1.15-4.26,2.03-5.88,1.66-3.04,3.21-3.31,3.96-3.45,21.58-3.79,43.32,1.12,61.18,13.8.2.17.44.3.64.47,2.57,1.89,5.11,3.96,7.51,6.19-8.9,12.55-14.95,27.16-17.55,42.48ZM197.02,217.6c-9.44-15.42-13.36-33.31-11.3-51.31.17-1.42.37-2.87.61-4.29,1.76-10.32,5.31-19.99,10.69-28.75,5.34,8.79,8.93,18.43,10.65,28.75.24,1.45.47,2.94.61,4.4,2.06,17.96-1.89,35.82-11.26,51.2ZM313.46,241.65c-30.74,21.85-72.71,19.51-100.82-5.28,2.54-4.5,5.17-8.62,7.91-12.45,29.42-41.67,67.1-46.2,88.2-44.81,15.19.98,26.51,5.31,32.67,8.79,2.23,1.28,3.79,2.43,4.6,3.28-4.02,20.46-15.56,38.32-32.57,50.46Z"/>
        <rect class="cls-2" x="184.26" y="281.05" width="25.68" height="25.68" transform="translate(-150.08 225.46) rotate(-45)"/>
        <path class="cls-2" d="M149.19,172.92l-.03.03c-.2-.17-.44-.3-.68-.41.24.1.47.24.71.37Z"/>
      </g>
    </g>
  </g>
</svg>